<?xml version="1.0" standalone="no"?>
<!DOCTYPE svg PUBLIC "-//W3C//DTD SVG 20010904//EN"
 "http://www.w3.org/TR/2001/REC-SVG-20010904/DTD/svg10.dtd">
<svg version="1.0" xmlns="http://www.w3.org/2000/svg"
 width="612.000000pt" height="612.000000pt" viewBox="0 0 612.000000 612.000000"
 preserveAspectRatio="xMidYMid meet">
<metadata>
Created by potrace 1.14, written by Peter Selinger 2001-2017
</metadata>
<g transform="translate(0.000000,612.000000) scale(0.100000,-0.100000)"
fill="#000000" stroke="none">
<path d="M1154 5193 c-33 -3 -43 -9 -48 -26 -8 -32 -7 -1040 2 -1053 4 -7 58
-10 147 -10 l140 1 5 288 5 289 180 -176 180 -176 -141 -140 -141 -140 104
-102 c91 -90 106 -101 121 -90 9 7 25 15 35 18 9 4 17 12 17 18 0 14 134 146
149 146 6 0 11 8 11 18 0 9 12 25 26 36 30 21 17 30 171 -120 l84 -82 -35 -53
c-84 -128 -120 -204 -162 -346 -35 -120 -44 -335 -19 -468 43 -233 143 -423
310 -590 167 -168 324 -250 588 -309 l27 -6 0 -245 0 -245 -210 0 -210 0 0
-144 c0 -117 3 -145 15 -149 8 -4 97 -6 197 -6 101 0 189 -1 195 -1 10 0 13
-67 15 -283 l3 -282 148 -3 147 -3 0 280 c0 203 3 282 12 287 6 4 102 8 212 8
l201 1 5 125 c8 186 26 170 -197 170 -104 0 -198 3 -211 6 l-22 6 0 239 c1
215 3 238 18 243 9 2 60 14 112 26 89 21 281 102 288 121 2 5 9 9 16 9 20 0
157 110 217 175 82 88 109 121 109 133 0 6 4 12 8 12 14 0 119 221 141 296 33
111 44 225 38 374 -5 120 -22 227 -47 285 -4 11 -18 47 -31 80 -24 63 -61 130
-111 203 l-30 43 34 38 c18 21 43 45 56 52 13 7 30 25 39 40 9 14 29 34 44 43
16 10 29 21 29 25 0 4 30 37 66 72 37 35 76 75 88 88 11 12 30 30 40 40 11 9
29 26 40 39 12 12 47 48 80 80 32 31 68 68 80 81 11 12 30 30 40 40 11 9 29
27 40 40 12 12 30 30 40 40 11 9 30 27 43 40 l23 24 2 -284 3 -284 147 0 147
0 2 530 c1 292 1 536 0 543 -1 9 -117 12 -546 12 l-545 0 0 -144 c0 -86 4
-147 10 -151 6 -3 132 -6 281 -5 259 1 271 0 258 -17 -37 -48 -751 -763 -762
-763 -5 0 -39 18 -74 40 -185 118 -431 180 -650 166 -171 -10 -375 -76 -518
-167 l-68 -43 -108 112 c-105 107 -128 139 -92 125 11 -4 14 -3 9 6 -5 8 33
53 114 132 87 86 120 125 116 137 -3 9 -50 61 -104 115 l-98 97 -139 -141
-139 -141 -168 171 c-92 94 -168 175 -168 180 0 5 116 9 283 10 l282 0 1 133
c1 73 -2 141 -7 151 -9 16 -42 17 -502 15 -271 -1 -511 -3 -533 -5z m2111
-1215 c50 -12 92 -25 95 -28 3 -3 20 -12 38 -20 115 -46 253 -165 338 -291
178 -266 160 -666 -41 -914 -165 -203 -339 -296 -582 -312 -326 -20 -611 140
-757 426 -47 95 -70 168 -86 280 -17 123 10 312 59 409 5 9 15 31 22 47 32 74
174 238 200 232 8 -2 11 -2 7 0 -11 7 3 33 18 33 8 0 14 5 14 10 0 6 7 10 15
10 8 0 15 3 15 8 0 9 93 62 140 80 173 64 328 74 505 30z"/>
</g>
</svg>
